# xmcd
#
# Track frame offsets:
#	150
#	19146
#	30434
#	42074
#	56354
#	70913
#	89568
#	103977
#	126136
#	150534
#
# Disc length: 2250 seconds
#
# Revision: 1
# Processed by: cddbd v1.5.2PL0 Copyright (c) Steve Scherf et al.
# Submitted via: audiograbber 1.83.01
#
DISCID=7b08c80a
DTITLE=Various Artist - New Rock  New Bands  New Albums
DYEAR=1900
DGENRE=Hard Rock
TTITLE0=Van Wilks - 1959
TTITLE1=Ian McLagan Little - Troublemaker
TTITLE2=The Kids - Some Day
TTITLE3=Faith Band - Dark Side Of L.A.
TTITLE4=Def Leppard - Answer To The Master
TTITLE5=Original Mirrors - Flying
TTITLE6=The Reels - Pefab Hearts
TTITLE7=Richard Fagan - Rhythm Of The Rails
TTITLE8=Phoenix - Just Another Day
TTITLE9=Duke Jupiter - Gonna Be There
EXTD=
EXTT0=
EXTT1=
EXTT2=
EXTT3=
EXTT4=
EXTT5=
EXTT6=
EXTT7=
EXTT8=
EXTT9=
PLAYORDER=
